<svg width="512" height="512" viewBox="0 0 64 64" fill="none" xmlns="http://www.w3.org/2000/svg">
  <rect width="64" height="64" rx="14" fill="#4f46e5"/>
  <g transform="translate(-11.23,-27.74) scale(1.0825)" fill="#ffffff">
    <path d="M36.759 36.7112C38.3832 36.5401 39.5926 36.9793 40.783 37.5675L41.2931 37.8272L41.2951 37.8282C44.703 39.6169 48.1124 41.3997 51.5216 43.1867H51.5226C53.3 44.121 54.1857 46.0854 54.1885 48.842C54.1907 50.6496 53.5817 52.5887 52.1667 54.3118C52.9375 54.6832 53.5213 55.2884 53.934 55.9533C54.5147 56.8894 54.7969 57.988 54.8604 58.883L54.8748 59.2529V59.2539C54.8787 62.3178 53.8798 64.7493 52.2378 66.6311C50.7124 68.3792 48.667 69.6143 46.4537 70.4748L46.0085 70.6418C44.1397 71.3191 40.8795 72.5068 37.7111 73.66C37.4554 73.8011 37.1364 73.8159 36.8589 73.6693L25.5164 67.6781C25.2232 67.5231 25.0401 67.2184 25.0393 66.8867L24.9971 41.2741C24.9964 40.896 25.233 40.5579 25.5886 40.4291C27.5194 39.73 29.4554 39.0279 31.386 38.3259L32.6226 37.8591C33.9023 37.3729 35.305 36.868 36.7569 36.7112H36.759ZM40.4615 39.4162C39.1601 38.7385 38.2484 38.3575 36.9486 38.4939C35.2968 38.6724 33.7663 39.3689 32.0002 40.0118C30.2657 40.6425 28.5263 41.2722 26.7911 41.9007L26.8313 66.3426L37.3298 71.8897C40.4224 70.7639 43.5717 69.6172 45.3964 68.9559L45.8055 68.8023C47.8353 68.013 49.605 66.9191 50.8858 65.4512C52.2368 63.903 53.0838 61.8947 53.0807 59.2581L53.0704 58.9963C53.0233 58.358 52.8151 57.5525 52.4099 56.8993C51.9649 56.1821 51.3371 55.717 50.4334 55.7266C50.059 55.7304 49.7218 55.5011 49.5874 55.1516C49.4529 54.802 49.5499 54.4052 49.8306 54.1572C51.687 52.5165 52.3964 50.5662 52.3944 48.8451V48.844C52.3921 46.4321 51.6381 45.2741 50.689 44.7747V44.7757C47.2823 42.99 43.8695 41.206 40.4615 39.4172V39.4162Z"/>
    <path d="M43.3962 44.4295C43.8619 44.2613 44.3757 44.5028 44.5442 44.9685C44.7125 45.4343 44.4721 45.949 44.0063 46.1174L38.1397 48.2371L38.1469 60.7585C38.1472 61.2538 37.7458 61.6558 37.2504 61.656C36.7553 61.6561 36.3542 61.2547 36.3539 60.7595L36.3457 48.1485L33.7231 46.7718C33.2849 46.5415 33.116 45.9994 33.3459 45.561C33.5763 45.1224 34.1192 44.9535 34.5578 45.1838L37.3112 46.6296L43.3962 44.4295Z"/>
  </g>
</svg>
